<svg xmlns="http://www.w3.org/2000/svg" viewBox="0 0 96 96" role="img" aria-label="WhatsApp">
  <circle cx="48" cy="48" r="43" fill="#20b846"/>
  <path d="M27 72l4.7-14.4A25.7 25.7 0 1 1 41 66.9L27 72z" fill="none" stroke="#fff" stroke-width="7" stroke-linejoin="round"/>
  <path d="M38.2 32.3c1.2-2.6 2.3-2.7 3.5-2.7h2.4c.8 0 1.9.3 2.9 2.2 1 1.9 3.5 6.6 3.8 7.1.3.5.5 1.1.1 1.8-.4.8-.7 1.2-1.3 1.9-.6.7-1.2 1.4-1.8 1.9-.6.6-1.2 1.2-.5 2.3.7 1.2 3 5 6.5 8.1 4.5 4 8.2 5.2 9.4 5.8 1.2.6 1.9.5 2.6-.3.8-.9 3-3.5 3.8-4.7.8-1.2 1.6-1 2.7-.6 1.1.4 7 3.3 8.2 3.9 1.2.6 2 1 2.3 1.5.3.6.3 3.4-.8 6.6-1.1 3.2-6.2 6.1-8.7 6.3-2.3.2-5.4.4-17.6-4.5C41.4 63.2 32 48.4 31.3 47.4c-.7-1-5.1-6.8-5.1-13s3.2-9.2 4.3-10.5z" fill="#fff"/>
</svg>
