<svg xmlns="http://www.w3.org/2000/svg" viewBox="0 0 96 96" role="img" aria-label="WhatsApp dorado">
  <defs>
    <linearGradient id="gold" x1="18" y1="8" x2="78" y2="88" gradientUnits="userSpaceOnUse">
      <stop offset="0" stop-color="#fff0a6"/>
      <stop offset="0.42" stop-color="#ffc02e"/>
      <stop offset="1" stop-color="#b97008"/>
    </linearGradient>
    <filter id="glow" x="-25%" y="-25%" width="150%" height="150%">
      <feGaussianBlur stdDeviation="2.2" result="blur"/>
      <feColorMatrix in="blur" type="matrix" values="1 0 0 0 1  0 0.62 0 0 0.63  0 0 0.2 0 0.12  0 0 0 0.9 0"/>
      <feMerge>
        <feMergeNode/>
        <feMergeNode in="SourceGraphic"/>
      </feMerge>
    </filter>
  </defs>
  <path
    d="M24.5 76.5l5.2-15.4A29.2 29.2 0 1 1 41 70.3L24.5 76.5z"
    fill="none"
    stroke="url(#gold)"
    stroke-width="7"
    stroke-linejoin="round"
    filter="url(#glow)"
  />
  <path
    d="M38.7 30.5c1.2-2.6 2.4-2.7 3.7-2.7h2.4c.9 0 2 .3 3.1 2.3 1.1 2 3.8 7.1 4.1 7.7.3.6.5 1.2.1 2-.4.8-.8 1.3-1.4 2-.6.7-1.3 1.5-1.9 2-.6.6-1.3 1.3-.5 2.5.8 1.2 3.3 5.4 7 8.8 4.8 4.3 8.8 5.6 10.1 6.2 1.3.6 2 .5 2.8-.4.8-.9 3.2-3.8 4.1-5 .9-1.3 1.7-1.1 2.9-.6 1.2.4 7.5 3.5 8.8 4.2 1.3.6 2.2 1 2.5 1.7.3.6.3 3.6-.9 7.1-1.2 3.5-6.7 6.6-9.4 6.8-2.5.2-5.8.4-18.9-4.8C41.7 63.9 31.7 48 30.9 46.9c-.8-1.1-5.5-7.3-5.5-14s3.4-9.9 4.6-11.3z"
    fill="url(#gold)"
    filter="url(#glow)"
  />
</svg>
