<svg xmlns="http://www.w3.org/2000/svg" viewBox="0 0 96 96" role="img" aria-label="WhatsApp">
  <path d="M23 77l6.3-18.5A30.8 30.8 0 1 1 40 68.8L23 77z" fill="none" stroke="#050505" stroke-width="8" stroke-linecap="round" stroke-linejoin="round"/>
  <path d="M37.8 30.2c1.3-2.8 2.5-2.9 3.8-2.9h2.6c.9 0 2.1.3 3.1 2.3 1.1 2.1 3.8 7.2 4.1 7.8.3.6.5 1.2.1 2-.4.8-.8 1.3-1.4 2.1-.6.7-1.3 1.5-1.9 2.1-.6.6-1.3 1.3-.5 2.5.7 1.3 3.3 5.4 7.1 8.8 4.9 4.4 8.9 5.7 10.2 6.3 1.3.7 2.1.6 2.8-.4.8-.9 3.3-3.8 4.1-5.1.9-1.3 1.7-1.1 2.9-.6 1.2.4 7.6 3.6 8.9 4.3 1.3.6 2.2 1 2.5 1.7.3.6.3 3.7-.9 7.1-1.2 3.5-6.7 6.6-9.4 6.8-2.5.2-5.9.5-19.1-4.9C41.1 63.9 30.9 47.9 30.1 46.8c-.8-1.1-5.6-7.4-5.6-14.2s3.5-10 4.7-11.4z" fill="#050505"/>
</svg>
